<svg id="Laag_1" data-name="Laag 1" xmlns="http://www.w3.org/2000/svg" viewBox="0 0 225 95.66"><defs><style>.cls-1{fill:#10225b;}</style></defs><path class="cls-1" d="M0,91C15.78,79.2,30.84,66.21,47.48,55.75,86.12,31.44,128.79,16.93,173.4,8.14,189.33,5,205.54,3.22,221.62.8,222.76.62,223.88.27,225,0V1c-15.4,3.33-31,6.06-46.18,10.1C126.37,25.05,78.17,47.64,38,84.74,29.12,92.88,20.55,96.28,9.25,95,5.93,94.56,2.19,95.89,0,92Z"/><path class="cls-1" d="M111.58,92.63a19.51,19.51,0,0,1-3.18,2.15,6.62,6.62,0,0,1-2.47.08c-7.81,0-16.6,2.19-23.19-.67C73.07,90,65,82.19,55.5,75.37L71.11,63Z"/><path class="cls-1" d="M51.14,48.37c-5.8,3.11-11.11,6.11-16.59,8.77a5,5,0,0,1-2.19.29,4.91,4.91,0,0,1-2.11-.68c-8.57-6-17-12.25-25.43-18.52-.91-.67-1.36-2-2-3,1.09-.51,2.17-1.45,3.27-1.47,7.67-.12,15.33-.1,23,0a6,6,0,0,1,3.24.94C38.53,39.11,44.72,43.65,51.14,48.37Z"/></svg>