<svg width="1512" height="200" viewBox="0 0 1512 200" fill="none" xmlns="http://www.w3.org/2000/svg">
<path d="M769.187 107.596C702.114 101.455 598 170.758 598 170.758V200.585H1513V74.2602L1463.95 90.0508C1412.89 100.578 1363.34 80.401 1363.34 80.401C1314.28 73.3829 1283.75 53.206 1283.75 53.206C1200.16 13.7295 1155.11 18.993 1155.11 18.993C1092.54 10.2204 1040.48 45.3107 1040.48 45.3107C941.375 112.859 898.328 107.596 898.328 107.596C866.794 121.632 769.187 107.596 769.187 107.596Z" fill="#78AF16"/>
<path d="M309 12.8684C191.5 -26.6278 0 40.9547 0 40.9547V200.696H1512V188.408L1394 184.897C1340.5 184.897 1264 157.689 1264 157.689C1170 130.48 1036.5 130.48 1036.5 130.48C826.5 184.897 659 184.897 659 184.897C575.5 176.998 493 107.66 493 107.66C396.5 27.7894 309 12.8684 309 12.8684Z" fill="#51830C"/>
</svg>
